<?xml version="1.0" encoding="utf-8"?>
<!-- Generator: Adobe Illustrator 17.0.0, SVG Export Plug-In . SVG Version: 6.00 Build 0)  -->
<!DOCTYPE svg PUBLIC "-//W3C//DTD SVG 1.1//EN" "http://www.w3.org/Graphics/SVG/1.1/DTD/svg11.dtd">
<svg version="1.1" id="Layer_1" xmlns="http://www.w3.org/2000/svg" xmlns:xlink="http://www.w3.org/1999/xlink" x="0px" y="0px"
	 width="149px" height="48.119px" viewBox="0 0 149 48.119" enable-background="new 0 0 149 48.119" xml:space="preserve">
<polygon fill="#FFFFFF" points="18.166,15.729 21.414,16.037 21.414,15.274 18.911,15.177 "/>
<g>
	<defs>
		<rect id="SVGID_1_" x="4.961" y="0.05" width="144.039" height="48.07"/>
	</defs>
	<clipPath id="SVGID_2_">
		<use xlink:href="#SVGID_1_"  overflow="visible"/>
	</clipPath>
	<path clip-path="url(#SVGID_2_)" fill="#FFFFFF" d="M37.838,15.85v3.533l-2.378,1.749l1.824,3.867l-4.766,2.311l-1.059,4.022v0.005
		l-0.036-0.005l-4.85-0.746l-2.552,1.449V32.03l-0.677-4.146l-0.136-0.841l-0.328-2.006l-0.005-0.038l0.168-0.037l2.652-0.606
		l1.882-2.834v-5.485C27.578,16.038,33.942,15.22,37.838,15.85"/>
</g>
<polygon fill="#FFFFFF" points="22.875,24.999 25.695,24.355 27.577,21.522 29.513,19.894 35.462,21.133 37.285,24.999 
	32.52,27.309 31.46,31.337 26.573,30.585 24.02,32.036 "/>
<polygon fill="#FFFFFF" points="37.285,24.999 28.571,20.863 27.342,23.823 32.519,27.309 "/>
<polygon fill="#FFFFFF" points="24.159,25.429 27.6,23.204 32.52,27.304 31.461,31.332 26.572,30.581 24.02,32.03 "/>
<polygon fill="#FFFFFF" points="22.875,25.034 26.573,25.967 31.46,31.372 26.573,30.62 24.02,32.07 "/>
<polygon fill="#FFFFFF" points="22.875,25.034 26.573,25.967 26.573,30.62 23.815,32.453 "/>
<g>
	<defs>
		<rect id="SVGID_3_" x="4.961" y="0.05" width="144.039" height="48.07"/>
	</defs>
	<clipPath id="SVGID_4_">
		<use xlink:href="#SVGID_3_"  overflow="visible"/>
	</clipPath>
	<path clip-path="url(#SVGID_4_)" fill="#FFFFFF" d="M37.838,17.318l-7.667,0.323l0.03,2.397l0.019,1.484l-0.073,0.089l-1.81,2.205
		l-0.358,0.435l-1.406,1.714l-2.442,0.782l-0.875,0.279l-0.048,0.017h-0.007l-0.157,0.05l-0.163-2.025l-0.002-0.035L22.876,25
		l0.168-0.037l2.652-0.607l1.882-2.832v-5.486c0,0,6.364-0.817,10.26-0.186V17.318z"/>
	<path clip-path="url(#SVGID_4_)" fill="#FFFFFF" d="M20.006,24.999l-0.005,0.037l-0.329,2.007l-0.811,4.986v0.005l-0.121-0.07
		l-2.431-1.38l-4.851,0.747l-0.036,0.005v-0.005l-1.059-4.022l-4.766-2.311l1.825-3.867l-2.461-1.81v-3.461
		c3.886-0.653,10.345,0.175,10.345,0.175v5.486l1.883,2.833l2.438,0.558L20.006,24.999z"/>
</g>
<polygon fill="#FFFFFF" points="7.42,21.133 5.597,24.999 10.362,27.309 11.421,31.338 16.309,30.586 18.861,32.036 20.007,24.999 
	17.187,24.355 15.305,21.521 13.369,19.894 "/>
<polygon fill="#FFFFFF" points="5.597,25 10.362,27.309 15.54,23.823 14.309,20.863 "/>
<polygon fill="#FFFFFF" points="18.723,25.429 15.282,23.204 10.362,27.304 11.421,31.332 16.31,30.581 18.862,32.03 "/>
<polygon fill="#FFFFFF" points="20.007,25.034 16.309,25.967 11.422,31.372 16.309,30.62 18.862,32.07 "/>
<polygon fill="#FFFFFF" points="20.007,25.034 16.309,25.967 16.309,30.62 18.862,32.07 "/>
<g>
	<defs>
		<rect id="SVGID_5_" x="4.961" y="0.05" width="144.039" height="48.07"/>
	</defs>
	<clipPath id="SVGID_6_">
		<use xlink:href="#SVGID_5_"  overflow="visible"/>
	</clipPath>
	<path clip-path="url(#SVGID_6_)" fill="#FFFFFF" d="M20.006,24.999l-0.002,0.035l-0.002,0.035l-0.165,2.026l-0.156-0.052h-0.008
		l-0.302-0.099l-0.621-0.197l-2.441-0.781l-1.407-1.714l-0.357-0.436l-1.811-2.205l-0.072-0.089l0.019-1.484l0.029-2.397
		L4.96,17.316v-1.454c3.886-0.653,10.345,0.175,10.345,0.175v5.486l1.883,2.833l2.438,0.558L20.006,24.999z"/>
</g>
<polygon fill="#FFFFFF" points="21.414,3.391 14.917,11.957 21.414,17.195 "/>
<polygon fill="#FFFFFF" points="14.917,11.957 21.414,17.195 21.414,12.657 "/>
<polygon fill="#FFFFFF" points="21.414,3.391 18.509,12.354 21.414,17.195 "/>
<polygon fill="#FFFFFF" points="18.509,12.353 21.413,17.194 21.413,12.794 "/>
<polygon fill="#FFFFFF" points="19.089,15.321 18.165,15.728 21.413,16.038 21.413,15.321 "/>
<polygon fill="#FFFFFF" points="18.165,15.729 18.165,19.874 21.414,20.032 21.414,15.729 "/>
<g>
	<defs>
		<rect id="SVGID_7_" x="4.961" y="0.05" width="144.039" height="48.07"/>
	</defs>
	<clipPath id="SVGID_8_">
		<use xlink:href="#SVGID_7_"  overflow="visible"/>
	</clipPath>
	<path clip-path="url(#SVGID_8_)" fill="#FFFFFF" d="M18.601,19.895c0,0,0.41,1.483,2.813,1.452v-1.452H18.601z"/>
	<path clip-path="url(#SVGID_8_)" fill="#FFFFFF" d="M19.961,21.133c0,0-0.309,0.272,0.046,0.778h1.407v-0.778H19.961z"/>
</g>
<polygon fill="#FFFFFF" points="20.007,21.91 18.165,36.518 24.232,36.518 22.73,21.91 "/>
<rect x="21.414" y="36.518" fill="#FFFFFF" width="5.105" height="7.778"/>
<rect x="16.309" y="36.518" fill="#FFFFFF" width="5.104" height="7.778"/>
<polygon fill="#FFFFFF" points="21.411,15.279 21.411,16.042 24.661,15.733 23.915,15.181 "/>
<polygon fill="#FFFFFF" points="21.412,3.396 27.908,11.962 21.412,17.199 "/>
<polygon fill="#FFFFFF" points="27.908,11.962 21.412,17.199 21.412,12.661 "/>
<polygon fill="#FFFFFF" points="21.412,3.396 24.316,12.358 21.412,17.199 "/>
<polygon fill="#FFFFFF" points="24.317,12.358 21.412,17.198 21.412,12.799 "/>
<polygon fill="#FFFFFF" points="21.411,15.325 21.411,16.041 24.661,15.732 23.737,15.325 "/>
<polygon fill="#FFFFFF" points="24.66,15.733 24.66,19.878 21.412,20.035 21.412,15.733 "/>
<g>
	<defs>
		<rect id="SVGID_9_" x="4.961" y="0.05" width="144.039" height="48.07"/>
	</defs>
	<clipPath id="SVGID_10_">
		<use xlink:href="#SVGID_9_"  overflow="visible"/>
	</clipPath>
	<path clip-path="url(#SVGID_10_)" fill="#FFFFFF" d="M24.225,19.899c0,0-0.41,1.483-2.813,1.452v-1.452H24.225z"/>
	<path clip-path="url(#SVGID_10_)" fill="#FFFFFF" d="M22.864,21.137c0,0,0.309,0.272-0.046,0.778h-1.407v-0.778H22.864z"/>
</g>
<polygon fill="#FFFFFF" points="18.166,15.729 21.414,16.037 21.414,15.274 18.911,15.177 "/>
<g>
	<defs>
		<rect id="SVGID_11_" x="4.961" y="0.05" width="144.039" height="48.07"/>
	</defs>
	<clipPath id="SVGID_12_">
		<use xlink:href="#SVGID_11_"  overflow="visible"/>
	</clipPath>
	<path clip-path="url(#SVGID_12_)" fill="#FFFFFF" d="M37.838,15.85v3.533l-2.378,1.749l1.824,3.867l-4.766,2.311l-1.059,4.022
		v0.005l-0.036-0.005l-4.85-0.746l-2.552,1.449V32.03l-0.677-4.146l-0.136-0.841l-0.328-2.006l-0.005-0.038l0.168-0.037l2.652-0.606
		l1.882-2.834v-5.485C27.578,16.038,33.942,15.22,37.838,15.85"/>
</g>
<polygon fill="#FFFFFF" points="22.875,24.999 25.695,24.355 27.577,21.522 29.513,19.894 35.462,21.133 37.285,24.999 
	32.52,27.309 31.46,31.337 26.573,30.585 24.02,32.036 "/>
<polygon fill="#FFFFFF" points="37.285,24.999 28.571,20.863 27.342,23.823 32.519,27.309 "/>
<polygon fill="#FFFFFF" points="24.159,25.429 27.6,23.204 32.52,27.304 31.461,31.332 26.572,30.581 24.02,32.03 "/>
<polygon fill="#FFFFFF" points="22.875,25.034 26.573,25.967 31.46,31.372 26.573,30.62 24.02,32.07 "/>
<polygon fill="#FFFFFF" points="22.875,25.034 26.573,25.967 26.573,30.62 23.815,32.453 "/>
<g>
	<defs>
		<rect id="SVGID_13_" x="4.961" y="0.05" width="144.039" height="48.07"/>
	</defs>
	<clipPath id="SVGID_14_">
		<use xlink:href="#SVGID_13_"  overflow="visible"/>
	</clipPath>
	<path clip-path="url(#SVGID_14_)" fill="#FFFFFF" d="M37.838,17.318l-7.667,0.323l0.03,2.397l0.019,1.484l-0.073,0.089l-1.81,2.205
		l-0.358,0.435l-1.406,1.714l-2.442,0.782l-0.875,0.279l-0.048,0.017h-0.007l-0.157,0.05l-0.163-2.025l-0.002-0.035L22.876,25
		l0.168-0.037l2.652-0.607l1.882-2.832v-5.486c0,0,6.364-0.817,10.26-0.186V17.318z"/>
	<path clip-path="url(#SVGID_14_)" fill="#FFFFFF" d="M20.006,24.999l-0.005,0.037l-0.329,2.007l-0.811,4.986v0.005l-0.121-0.07
		l-2.431-1.38l-4.851,0.747l-0.036,0.005v-0.005l-1.059-4.022l-4.766-2.311l1.825-3.867l-2.461-1.81v-3.461
		c3.886-0.653,10.345,0.175,10.345,0.175v5.486l1.883,2.833l2.438,0.558L20.006,24.999z"/>
</g>
<polygon fill="#FFFFFF" points="7.42,21.133 5.597,24.999 10.362,27.309 11.421,31.338 16.309,30.586 18.861,32.036 20.007,24.999 
	17.187,24.355 15.305,21.521 13.369,19.894 "/>
<polygon fill="#FFFFFF" points="5.597,25 10.362,27.309 15.54,23.823 14.309,20.863 "/>
<polygon fill="#FFFFFF" points="18.723,25.429 15.282,23.204 10.362,27.304 11.421,31.332 16.31,30.581 18.862,32.03 "/>
<polygon fill="#FFFFFF" points="20.007,25.034 16.309,25.967 11.422,31.372 16.309,30.62 18.862,32.07 "/>
<polygon fill="#FFFFFF" points="20.007,25.034 16.309,25.967 16.309,30.62 18.862,32.07 "/>
<g>
	<defs>
		<rect id="SVGID_15_" x="4.961" y="0.05" width="144.039" height="48.07"/>
	</defs>
	<clipPath id="SVGID_16_">
		<use xlink:href="#SVGID_15_"  overflow="visible"/>
	</clipPath>
	<path clip-path="url(#SVGID_16_)" fill="#FFFFFF" d="M20.006,24.999l-0.002,0.035l-0.002,0.035l-0.165,2.026l-0.156-0.052h-0.008
		l-0.302-0.099l-0.621-0.197l-2.441-0.781l-1.407-1.714l-0.357-0.436l-1.811-2.205l-0.072-0.089l0.019-1.484l0.029-2.397
		L4.96,17.316v-1.454c3.886-0.653,10.345,0.175,10.345,0.175v5.486l1.883,2.833l2.438,0.558L20.006,24.999z"/>
</g>
<polygon fill="#FFFFFF" points="21.414,3.391 14.917,11.957 21.414,17.195 "/>
<polygon fill="#FFFFFF" points="14.917,11.957 21.414,17.195 21.414,12.657 "/>
<polygon fill="#FFFFFF" points="21.414,3.391 18.509,12.354 21.414,17.195 "/>
<polygon fill="#FFFFFF" points="18.509,12.353 21.413,17.194 21.413,12.794 "/>
<polygon fill="#FFFFFF" points="19.089,15.321 18.165,15.728 21.413,16.038 21.413,15.321 "/>
<polygon fill="#FFFFFF" points="18.165,15.729 18.165,19.874 21.414,20.032 21.414,15.729 "/>
<g>
	<defs>
		<rect id="SVGID_17_" x="4.961" y="0.05" width="144.039" height="48.07"/>
	</defs>
	<clipPath id="SVGID_18_">
		<use xlink:href="#SVGID_17_"  overflow="visible"/>
	</clipPath>
	<path clip-path="url(#SVGID_18_)" fill="#FFFFFF" d="M18.601,19.895c0,0,0.41,1.483,2.813,1.452v-1.452H18.601z"/>
	<path clip-path="url(#SVGID_18_)" fill="#FFFFFF" d="M19.961,21.133c0,0-0.309,0.272,0.046,0.778h1.407v-0.778H19.961z"/>
</g>
<polygon fill="#FFFFFF" points="20.007,21.91 18.165,36.518 24.232,36.518 22.73,21.91 "/>
<rect x="21.414" y="36.518" fill="#FFFFFF" width="5.105" height="7.778"/>
<rect x="16.309" y="36.518" fill="#FFFFFF" width="5.104" height="7.778"/>
<polygon fill="#FFFFFF" points="21.411,15.279 21.411,16.042 24.661,15.733 23.915,15.181 "/>
<polygon fill="#FFFFFF" points="21.412,3.396 27.908,11.962 21.412,17.199 "/>
<polygon fill="#FFFFFF" points="27.908,11.962 21.412,17.199 21.412,12.661 "/>
<polygon fill="#FFFFFF" points="21.412,3.396 24.316,12.358 21.412,17.199 "/>
<polygon fill="#FFFFFF" points="24.317,12.358 21.412,17.198 21.412,12.799 "/>
<polygon fill="#FFFFFF" points="21.411,15.325 21.411,16.041 24.661,15.732 23.737,15.325 "/>
<polygon fill="#FFFFFF" points="24.66,15.733 24.66,19.878 21.412,20.035 21.412,15.733 "/>
<g>
	<defs>
		<rect id="SVGID_19_" x="14.57" y="0.05" width="134.43" height="44.863"/>
	</defs>
	<clipPath id="SVGID_20_">
		<use xlink:href="#SVGID_19_"  overflow="visible"/>
	</clipPath>
	<path clip-path="url(#SVGID_20_)" fill="#FFFFFF" d="M32.55,18.575c0,0-0.382,1.384-2.626,1.355v-1.355H32.55z"/>
	<path clip-path="url(#SVGID_20_)" fill="#FFFFFF" d="M31.28,19.73c0,0,0.288,0.253-0.043,0.726h-1.313V19.73H31.28z"/>
</g>
<text transform="matrix(1 0 0 1 40.8437 25.671)"><tspan x="0" y="0" fill="#FFFFFF" font-family="'Oswald-Bold'" font-size="14.4209">Hi, St</tspan><tspan x="30.518" y="0" fill="#FFFFFF" font-family="'Oswald-Bold'" font-size="14.4209">r</tspan><tspan x="35.387" y="0" fill="#FFFFFF" font-family="'Oswald-Bold'" font-size="14.4209">an</tspan><tspan x="49.336" y="0" fill="#FFFFFF" font-family="'Oswald-Bold'" font-size="14.4209">g</tspan><tspan x="55.914" y="0" fill="#FFFFFF" font-family="'Oswald-Bold'" font-size="14.4209">er</tspan></text>
<text transform="matrix(1 0 0 1 40.8437 40.0929)"><tspan x="0" y="0" fill="#FFFFFF" font-family="'Oswald-Light'" font-size="12.0174">P</tspan><tspan x="5.891" y="0" fill="#FFFFFF" font-family="'Oswald-Light'" font-size="12.0174">r</tspan><tspan x="8.893" y="0" fill="#FFFFFF" font-family="'Oswald-Light'" font-size="12.0174">oductions</tspan></text>
</svg>
